<svg xmlns="http://www.w3.org/2000/svg" width="19" height="19" viewBox="0 0 19 19">
  <defs>
    <style>
      .cls-1 {
        fill: #fff;
        fill-rule: evenodd;
      }
    </style>
  </defs>
  <path class="cls-1" d="M1127.45,71.577a1.339,1.339,0,0,0-2.02,0c-0.47.467-.94,0.934-1.4,1.409a0.28,0.28,0,0,1-.39.071c-0.3-.166-0.63-0.3-0.92-0.483a14.634,14.634,0,0,1-3.52-3.2,8.322,8.322,0,0,1-1.26-2.021,0.3,0.3,0,0,1,.07-0.372c0.47-.455.93-0.922,1.39-1.389a1.333,1.333,0,0,0,0-2.061c-0.37-.372-0.74-0.736-1.1-1.108-0.38-.38-0.76-0.764-1.14-1.139a1.336,1.336,0,0,0-2.01,0c-0.48.467-.93,0.945-1.42,1.4a2.335,2.335,0,0,0-.72,1.547,6.638,6.638,0,0,0,.51,2.821,17.336,17.336,0,0,0,3.04,5.068A18.9,18.9,0,0,0,1122.79,77a8.991,8.991,0,0,0,3.45,1,2.523,2.523,0,0,0,2.17-.827c0.41-.451.86-0.862,1.29-1.294a1.348,1.348,0,0,0,.01-2.049C1128.96,73.081,1128.2,72.329,1127.45,71.577Zm-0.76-3.153,1.46-.249a6.542,6.542,0,0,0-5.54-5.376l-0.21,1.468A5.068,5.068,0,0,1,1126.69,68.424Zm2.28-6.346A10.729,10.729,0,0,0,1122.8,59l-0.2,1.468a9.38,9.38,0,0,1,7.94,7.7l1.46-.249A10.809,10.809,0,0,0,1128.97,62.078Z" transform="translate(-1113 -59)"/>
</svg>
